<?xml version="1.0" encoding="UTF-8" standalone="no"?> <svg xmlns="http://www.w3.org/2000/svg" viewBox="0 0 64 64"><defs><style>.cls-1{fill:#ffc048;}</style></defs><g id="Layer_33" data-name="Layer 33"><path class="cls-1" d="M32,3.4h0A28.59,28.59,0,0,0,3.4,32h0A28.59,28.59,0,0,0,32,60.6h0A28.59,28.59,0,0,0,60.6,32h0A28.59,28.59,0,0,0,32,3.4ZM14.08,47.34l2.25-7.43,5.18,5.17Zm2.82-8.57L38.32,17.35l5.74,5.74L22.64,44.51ZM39.17,16.5l3.77-3.77a2.16,2.16,0,0,1,3,0l2.75,2.75a2.12,2.12,0,0,1,0,3l-3.77,3.76ZM51.23,48.84H27.73a.6.6,0,0,1,0-1.2h23.5a.6.6,0,0,1,0,1.2Z"/></g></svg>